<svg xmlns="http://www.w3.org/2000/svg" viewBox="0 0 512 512">
  <defs>
    <linearGradient id="bg" x1="0%" y1="0%" x2="100%" y2="100%">
      <stop offset="0%" style="stop-color:#C0533A"/>
      <stop offset="100%" style="stop-color:#7A3020"/>
    </linearGradient>
  </defs>
  <rect width="512" height="512" rx="100" fill="url(#bg)"/>
  <!-- Immeuble / bâtiment -->
  <rect x="156" y="200" width="200" height="220" rx="8" fill="#fff" opacity="0.15"/>
  <rect x="176" y="180" width="160" height="240" rx="6" fill="#fff" opacity="0.95"/>
  <!-- Fenêtres -->
  <rect x="200" y="210" width="35" height="30" rx="4" fill="#C0533A" opacity="0.7"/>
  <rect x="250" y="210" width="35" height="30" rx="4" fill="#C0533A" opacity="0.7"/>
  <rect x="300" y="210" width="35" height="30" rx="4" fill="#C0533A" opacity="0.7"/>
  <rect x="200" y="260" width="35" height="30" rx="4" fill="#C0533A" opacity="0.7"/>
  <rect x="250" y="260" width="35" height="30" rx="4" fill="#C0533A" opacity="0.7"/>
  <rect x="300" y="260" width="35" height="30" rx="4" fill="#C0533A" opacity="0.7"/>
  <!-- Porte -->
  <rect x="236" y="340" width="40" height="80" rx="6" fill="#C0533A" opacity="0.8"/>
  <!-- Toit / triangle -->
  <polygon points="256,100 156,195 356,195" fill="#fff" opacity="0.95"/>
  <!-- Texte PM -->
  <text x="256" y="165" font-family="Georgia,serif" font-size="52" font-weight="900" text-anchor="middle" fill="#C0533A" opacity="0.9">PM</text>
</svg>
